<mxfile host="app.diagrams.net" agent="Mozilla/5.0 (X11; Ubuntu; Linux x86_64; rv:132.0) Gecko/20100101 Firefox/132.0" version="24.8.4">
  <diagram name="Page-1" id="sSXN8WSK6-QZzNzwGj7g">
    <mxGraphModel dx="869" dy="479" grid="1" gridSize="10" guides="1" tooltips="1" connect="1" arrows="1" fold="1" page="1" pageScale="1" pageWidth="850" pageHeight="1100" math="0" shadow="0">
      <root>
        <mxCell id="0" />
        <mxCell id="1" parent="0" />
        <mxCell id="0MCiRzmwVoXN2L1HjXGT-34" style="edgeStyle=orthogonalEdgeStyle;rounded=0;orthogonalLoop=1;jettySize=auto;html=1;exitX=0;exitY=0.75;exitDx=0;exitDy=0;entryX=0;entryY=0;entryDx=0;entryDy=0;curved=1;strokeColor=#a51d2d;" edge="1" parent="1" source="0MCiRzmwVoXN2L1HjXGT-1" target="0MCiRzmwVoXN2L1HjXGT-6">
          <mxGeometry relative="1" as="geometry">
            <Array as="points">
              <mxPoint x="320" y="387" />
              <mxPoint x="320" y="572" />
            </Array>
          </mxGeometry>
        </mxCell>
        <mxCell id="0MCiRzmwVoXN2L1HjXGT-1" value="Proces 3" style="rounded=1;whiteSpace=wrap;html=1;fillColor=none;fontColor=#a51d2d;strokeColor=#a51d2d;" vertex="1" parent="1">
          <mxGeometry x="360" y="364" width="80" height="30" as="geometry" />
        </mxCell>
        <mxCell id="0MCiRzmwVoXN2L1HjXGT-33" style="edgeStyle=orthogonalEdgeStyle;rounded=0;orthogonalLoop=1;jettySize=auto;html=1;exitX=0;exitY=0.75;exitDx=0;exitDy=0;entryX=0;entryY=0;entryDx=0;entryDy=0;curved=1;strokeColor=#a51d2d;" edge="1" parent="1" source="0MCiRzmwVoXN2L1HjXGT-2" target="0MCiRzmwVoXN2L1HjXGT-8">
          <mxGeometry relative="1" as="geometry">
            <Array as="points">
              <mxPoint x="340" y="420" />
              <mxPoint x="340" y="510" />
              <mxPoint x="450" y="510" />
              <mxPoint x="450" y="572" />
            </Array>
          </mxGeometry>
        </mxCell>
        <mxCell id="0MCiRzmwVoXN2L1HjXGT-2" value="Proces 2" style="rounded=1;whiteSpace=wrap;html=1;fillColor=none;fontColor=#a51d2d;strokeColor=#a51d2d;" vertex="1" parent="1">
          <mxGeometry x="360" y="397" width="80" height="30" as="geometry" />
        </mxCell>
        <mxCell id="0MCiRzmwVoXN2L1HjXGT-29" style="edgeStyle=orthogonalEdgeStyle;rounded=0;orthogonalLoop=1;jettySize=auto;html=1;exitX=1;exitY=0.5;exitDx=0;exitDy=0;entryX=0;entryY=0;entryDx=0;entryDy=0;curved=1;strokeColor=#a51d2d;" edge="1" parent="1" source="0MCiRzmwVoXN2L1HjXGT-3" target="0MCiRzmwVoXN2L1HjXGT-9">
          <mxGeometry relative="1" as="geometry">
            <Array as="points">
              <mxPoint x="450" y="445" />
              <mxPoint x="450" y="530" />
              <mxPoint x="645" y="530" />
            </Array>
          </mxGeometry>
        </mxCell>
        <mxCell id="0MCiRzmwVoXN2L1HjXGT-3" value="Proces 1" style="rounded=1;whiteSpace=wrap;html=1;fillColor=none;fontColor=#a51d2d;strokeColor=#a51d2d;" vertex="1" parent="1">
          <mxGeometry x="360" y="430" width="80" height="30" as="geometry" />
        </mxCell>
        <mxCell id="0MCiRzmwVoXN2L1HjXGT-4" value="Proces n" style="rounded=1;whiteSpace=wrap;html=1;fillColor=none;fontColor=#a51d2d;strokeColor=#a51d2d;" vertex="1" parent="1">
          <mxGeometry x="360" y="308" width="80" height="30" as="geometry" />
        </mxCell>
        <mxCell id="0MCiRzmwVoXN2L1HjXGT-5" value="..." style="text;html=1;align=center;verticalAlign=middle;resizable=0;points=[];autosize=1;strokeColor=none;fillColor=none;fontColor=#a51d2d;" vertex="1" parent="1">
          <mxGeometry x="385" y="334" width="30" height="30" as="geometry" />
        </mxCell>
        <mxCell id="0MCiRzmwVoXN2L1HjXGT-6" value="&lt;div&gt;Jedn. obliczeniowa&lt;/div&gt;&lt;div&gt;nr 1&lt;/div&gt;" style="ellipse;whiteSpace=wrap;html=1;fillColor=none;" vertex="1" parent="1">
          <mxGeometry x="320" y="560" width="120" height="80" as="geometry" />
        </mxCell>
        <mxCell id="0MCiRzmwVoXN2L1HjXGT-8" value="&lt;div&gt;Jedn. obliczeniowa&lt;/div&gt;&lt;div&gt;nr 2&lt;br&gt;&lt;/div&gt;" style="ellipse;whiteSpace=wrap;html=1;fillColor=none;" vertex="1" parent="1">
          <mxGeometry x="475" y="560" width="120" height="80" as="geometry" />
        </mxCell>
        <mxCell id="0MCiRzmwVoXN2L1HjXGT-9" value="&lt;div&gt;Jedn. obliczeniowa&lt;/div&gt;&lt;div&gt;nr n&lt;br&gt;&lt;/div&gt;" style="ellipse;whiteSpace=wrap;html=1;fillColor=none;" vertex="1" parent="1">
          <mxGeometry x="627" y="560" width="120" height="80" as="geometry" />
        </mxCell>
        <mxCell id="0MCiRzmwVoXN2L1HjXGT-10" value="..." style="text;html=1;align=center;verticalAlign=middle;resizable=0;points=[];autosize=1;strokeColor=none;fillColor=none;" vertex="1" parent="1">
          <mxGeometry x="597" y="585" width="30" height="30" as="geometry" />
        </mxCell>
        <mxCell id="0MCiRzmwVoXN2L1HjXGT-11" value="Proces 3" style="rounded=1;whiteSpace=wrap;html=1;fillColor=none;fontColor=#1a5fb4;strokeColor=#1a5fb4;" vertex="1" parent="1">
          <mxGeometry x="487" y="319" width="205" height="30" as="geometry" />
        </mxCell>
        <mxCell id="0MCiRzmwVoXN2L1HjXGT-12" value="Proces 2" style="rounded=1;whiteSpace=wrap;html=1;fillColor=none;fontColor=#1a5fb4;strokeColor=#1a5fb4;" vertex="1" parent="1">
          <mxGeometry x="487" y="352" width="205" height="30" as="geometry" />
        </mxCell>
        <mxCell id="0MCiRzmwVoXN2L1HjXGT-13" value="" style="rounded=1;whiteSpace=wrap;html=1;fillColor=none;strokeColor=#1a5fb4;" vertex="1" parent="1">
          <mxGeometry x="487" y="385" width="205" height="110" as="geometry" />
        </mxCell>
        <mxCell id="0MCiRzmwVoXN2L1HjXGT-14" value="Proces n" style="rounded=1;whiteSpace=wrap;html=1;fillColor=none;fontColor=#1a5fb4;strokeColor=#1a5fb4;" vertex="1" parent="1">
          <mxGeometry x="487" y="263" width="205" height="30" as="geometry" />
        </mxCell>
        <mxCell id="0MCiRzmwVoXN2L1HjXGT-15" value="..." style="text;html=1;align=center;verticalAlign=middle;resizable=0;points=[];autosize=1;strokeColor=none;fillColor=none;fontColor=#1a5fb4;" vertex="1" parent="1">
          <mxGeometry x="574.5" y="289" width="30" height="30" as="geometry" />
        </mxCell>
        <mxCell id="0MCiRzmwVoXN2L1HjXGT-16" value="Proces 1" style="text;html=1;align=center;verticalAlign=middle;resizable=0;points=[];autosize=1;strokeColor=none;fillColor=none;fontColor=#1a5fb4;" vertex="1" parent="1">
          <mxGeometry x="554.5" y="395" width="70" height="30" as="geometry" />
        </mxCell>
        <mxCell id="0MCiRzmwVoXN2L1HjXGT-26" style="edgeStyle=orthogonalEdgeStyle;rounded=0;orthogonalLoop=1;jettySize=auto;html=1;exitX=0.5;exitY=1;exitDx=0;exitDy=0;entryX=1;entryY=0;entryDx=0;entryDy=0;curved=1;strokeColor=#1a5fb4;" edge="1" parent="1" source="0MCiRzmwVoXN2L1HjXGT-17" target="0MCiRzmwVoXN2L1HjXGT-6">
          <mxGeometry relative="1" as="geometry" />
        </mxCell>
        <mxCell id="0MCiRzmwVoXN2L1HjXGT-17" value="Wątek 1" style="rounded=1;whiteSpace=wrap;html=1;fillColor=none;fontColor=#1a5fb4;strokeColor=#1a5fb4;" vertex="1" parent="1">
          <mxGeometry x="502" y="425" width="50" height="50" as="geometry" />
        </mxCell>
        <mxCell id="0MCiRzmwVoXN2L1HjXGT-27" style="edgeStyle=orthogonalEdgeStyle;rounded=0;orthogonalLoop=1;jettySize=auto;html=1;exitX=0.5;exitY=1;exitDx=0;exitDy=0;entryX=0.5;entryY=0;entryDx=0;entryDy=0;curved=1;strokeColor=#1a5fb4;" edge="1" parent="1" source="0MCiRzmwVoXN2L1HjXGT-18" target="0MCiRzmwVoXN2L1HjXGT-8">
          <mxGeometry relative="1" as="geometry" />
        </mxCell>
        <mxCell id="0MCiRzmwVoXN2L1HjXGT-18" value="Wątek 1" style="rounded=1;whiteSpace=wrap;html=1;fillColor=none;fontColor=#1a5fb4;strokeColor=#1a5fb4;" vertex="1" parent="1">
          <mxGeometry x="557" y="425" width="50" height="50" as="geometry" />
        </mxCell>
        <mxCell id="0MCiRzmwVoXN2L1HjXGT-28" style="edgeStyle=orthogonalEdgeStyle;rounded=0;orthogonalLoop=1;jettySize=auto;html=1;exitX=0.5;exitY=1;exitDx=0;exitDy=0;entryX=0.5;entryY=0;entryDx=0;entryDy=0;curved=1;strokeColor=#1a5fb4;" edge="1" parent="1" source="0MCiRzmwVoXN2L1HjXGT-19" target="0MCiRzmwVoXN2L1HjXGT-9">
          <mxGeometry relative="1" as="geometry" />
        </mxCell>
        <mxCell id="0MCiRzmwVoXN2L1HjXGT-19" value="Wątek n" style="rounded=1;whiteSpace=wrap;html=1;fillColor=none;fontColor=#1a5fb4;strokeColor=#1a5fb4;" vertex="1" parent="1">
          <mxGeometry x="627" y="425" width="50" height="50" as="geometry" />
        </mxCell>
        <mxCell id="0MCiRzmwVoXN2L1HjXGT-20" value="..." style="text;html=1;align=center;verticalAlign=middle;resizable=0;points=[];autosize=1;strokeColor=none;fillColor=none;fontColor=#1a5fb4;" vertex="1" parent="1">
          <mxGeometry x="602" y="435" width="30" height="30" as="geometry" />
        </mxCell>
        <mxCell id="0MCiRzmwVoXN2L1HjXGT-21" value="" style="endArrow=none;dashed=1;html=1;dashPattern=1 3;strokeWidth=2;rounded=0;" edge="1" parent="1">
          <mxGeometry width="50" height="50" relative="1" as="geometry">
            <mxPoint x="463" y="495" as="sourcePoint" />
            <mxPoint x="463" y="210" as="targetPoint" />
          </mxGeometry>
        </mxCell>
        <mxCell id="0MCiRzmwVoXN2L1HjXGT-35" value="SMP" style="text;html=1;align=center;verticalAlign=middle;resizable=0;points=[];autosize=1;strokeColor=none;fillColor=none;fontColor=#1a5fb4;" vertex="1" parent="1">
          <mxGeometry x="564.5" y="220" width="50" height="30" as="geometry" />
        </mxCell>
        <mxCell id="0MCiRzmwVoXN2L1HjXGT-36" value="AMP" style="text;html=1;align=center;verticalAlign=middle;resizable=0;points=[];autosize=1;strokeColor=none;fillColor=none;fontColor=#a51d2d;" vertex="1" parent="1">
          <mxGeometry x="374.5" y="220" width="50" height="30" as="geometry" />
        </mxCell>
      </root>
    </mxGraphModel>
  </diagram>
</mxfile>
